

Release info:

General
Format                                   : Matroska
Format version                           : Version 4 / Version 2
File size                                : 922 MiB
Duration                                 : 1h 39mn
Overall bit rate                         : 1 293 Kbps
Movie name                               : Mama 2013 WEBRip English

Video
ID                                       : 1
Format                                   : MPEG-4 Visual
Format profile                           : Advanced Simple@L5
Format settings, BVOP                    : Yes
Format settings, QPel                    : No
Format settings, GMC                     : No warppoints
Format settings, Matrix                  : Default (H.263)
Codec ID                                 : V_MS/VFW/FOURCC / XVID
Codec ID/Hint                            : XviD
Duration                                 : 1h 39mn
Bit rate                                 : 1 139 Kbps
Width                                    : 640 pixels
Height                                   : 360 pixels
Display aspect ratio                     : 16:9
Frame rate mode                          : Constant
Frame rate                               : 23.976 fps
Color space                              : YUV
Chroma subsampling                       : 4:2:0
Bit depth                                : 8 bits
Scan type                                : Progressive
Compression mode                         : Lossy
Bits/(Pixel*Frame)                       : 0.206
Stream size                              : 813 MiB (88%)
Title                                    : Mama 2013 WEBRip English
Language                                 : English
Default                                  : Yes
Forced                                   : No

Audio
ID                                       : 2
Format                                   : MPEG Audio
Format version                           : Version 1
Format profile                           : Layer 3
Mode                                     : Joint stereo
Mode extension                           : MS Stereo
Codec ID                                 : A_MPEG/L3
Codec ID/Hint                            : MP3
Duration                                 : 1h 39mn
Bit rate mode                            : Constant
Bit rate                                 : 128 Kbps
Channel(s)                               : 2 channels
Sampling rate                            : 44.1 KHz
Compression mode                         : Lossy
Stream size                              : 91.3 MiB (10%)
Title                                    : Mama 2013 WEBRip English
Language                                 : English
Default                                  : Yes
Forced                                   : No



Source:
credit to original movie ripper  (Thanks)

IMDB Info:

Annabel and Lucas are faced with the challenge of raising his young nieces that were left alone in the forest for 5 years.... but how alone were they?

Director: Andrés Muschietti
Writers: Neil Cross (screenplay), Andrés Muschietti (screenplay), 
Stars: Jessica Chastain, Nikolaj Coster-Waldau, Megan Charpentier 

Genres: Horror | Mystery
 
http://www.imdb.com/title/tt2023587/

Screen Shot:
 
http://www.shotpix.com/images/53768907631540006687.png 
http://www.shotpix.com/images/39412317591239986113.png 
http://www.shotpix.com/images/56456831806959049387.png 
http://www.shotpix.com/images/77501807732816497350.png